<svg xmlns="http://www.w3.org/2000/svg" width="1706.667" height="1600" viewBox="0 0 1280 1200" preserveAspectRatio="xMidYMid meet"><path d="M1052 .9c-11.1 3.5-17.3 11.8-17.4 23.1-.3 22.6 27.4 42.2 69.6 49.5 11.1 2 13.3 3 18.9 9.3 8.7 9.6 16.4 28.9 24.4 61.1 7.1 28.5 7.8 34.4 7.2 64.6-.6 28.7-1.7 40-9.7 96.5-9.5 66.4-15 92-24.7 115-14.4 33.8-31.3 44.6-77.3 49.4-31.1 3.3-46.4 3.6-174.3 3.6-131.4 0-186.9.8-239.7 3.6-41.3 2.1-117.9 3-141 1.5-35.2-2.2-56.7-5.8-67.5-11.3-3.8-1.9-7.5-6.2-7.5-8.5 0-1.3-.6-2.5-1.2-2.7-19.1-5.8-28.4-10.2-39.9-18.7-12.4-9.2-22.1-20.7-42.8-50.9-20.8-30.2-27.7-38.1-47.6-54.7-18.6-15.6-27.6-24.1-33.1-31.6-5.6-7.5-13.7-24.3-20.9-43.2l-15-37.9-1.6-3.9-3.3 4.9c-1.9 2.7-5.2 6.9-7.4 9.3s-6.1 8.5-8.7 13.5-6.6 12.1-8.9 15.8c-3.5 5.7-4.5 6.7-6.9 6.8-4.5 0-12.5-8.5-23.4-25.1-5.4-8.2-10.1-14.9-10.4-14.9-.8 0-1.9 8-1.9 13.9 0 2.6.9 9.6 2 15.6 2.9 15.9 2.8 16.9-2.3 21.8-3.3 3.3-6.3 4.9-13.2 7.2-17 5.6-45.1 21.5-56.1 31.7-2.5 2.3-8.3 9.9-12.9 16.8-4.5 7-10.3 14.4-12.8 16.6-2.4 2.2-10.3 7-17.5 10.8C12 367.3 7.5 370.9 3.6 378c-5.1 9.4-4.4 22 2.5 41.8 5.5 15.5 11.5 25.8 20.4 34.8 13.4 13.4 23.5 17.1 60.6 22 18.9 2.4 31.2 9 40.5 21.6 6.3 8.7 8.2 12.7 15.4 32.8 4 11.1 10.1 25.2 16.8 38.5 21.8 43.7 29.7 64.9 39.8 107.8 12.7 54.2 19.5 72.8 45.3 125 27.6 55.6 29 62.9 22.2 114.2l-7.1 56c-7 57.4-19 131-23.1 141.9-5.3 14.4-15.9 22-42 30.2-19 6-27.4 11.8-32.9 22.7-3.6 7.2-3.9 12.4-.8 17.8 6.1 10.9 22.8 15.4 54 14.7 16-.3 17.7-.6 22.8-2.9 9.5-4.4 16.6-12 24.8-26.6 12.4-21.8 17.1-26.8 24.2-26 1.9.2 4.3.7 5.2 1.1 1.4.6 2.4-.6 5.2-6.1 5.3-10.7 10.9-24.6 20.2-50.3 13.8-37.9 15.9-43.1 29.9-72 7.3-15.1 17.7-38.3 23-51.5s12.8-30.4 16.5-38.3c3.8-7.8 6.7-14.2 6.4-14.2-1.3 0 10.2-19.6 16.4-27.9l2.5-3.3 4.2 16.8c12.5 49.7 43.8 123.1 74.7 175.1 8.2 13.7 13.1 19.3 27.8 31.7 15.1 12.8 21.5 20.2 23.6 27.3 1.4 4.9 1.4 5.9-.6 15.5-2.3 11-2.1 14.7 1.2 23.4 2.3 6.3 9.4 13.3 16 15.9 7.4 2.8 20.4 1.8 28.8-2.2 21.6-10.2 29.5-37.9 19.2-67.6-4.9-14.2-12.4-25.4-33.7-50.7-16.5-19.5-22.6-27.9-28.3-39-5.9-11.3-7.6-16.4-9.8-29-1.8-10.5-1.6-21.4 1-47 2.3-21.9 3.6-53.3 3.7-84.7l.1-28.3h20.1c22.3 0 44.5 1 88.5 4 56.5 3.8 83.9 2.5 140-6.6l4.2-.7v7.6c0 15.4 4.2 38.4 12.6 69.6l8 29.9c2 7.5 6.7 22.4 10.6 33.2 8.1 22.6 11.6 36.2 12.4 47.5 1.5 21.4-8.3 40.1-35.1 67.1-13.2 13.3-25 22.5-35.2 27.6-7.8 3.8-14 4.2-28.8 1.9-8.1-1.3-9.6-1.2-14.9.3-7.6 2.2-14.8 9.3-19.7 19.1-7.7 15.7-2.5 28.8 14.6 36.5 10.6 4.8 18.7 6.4 33 6.4 19.9.1 35.8-4.3 58.3-15.9 26.8-14 49.9-31.9 88.1-68.4 27-25.7 41.1-42.3 49.7-58.6 5.8-10.8 6.5-16.2 3.5-26a175.88 175.88 0 0 1-3.6-14.3c-4.4-22.8-2.3-35.2 6.8-39.5 2.8-1.4 3.5-2.5 5.4-8.9 1.2-4 4.5-11.4 7.4-16.3 10-17.3 13.8-30.4 14.8-50.9l.6-13 23.1 25c26.1 28.2 41.8 43.5 56.1 55.1 25.7 20.6 57 40.2 92 57.4 37.9 18.6 42.3 23.4 42.3 45.9 0 21.1-9.6 53.2-21.8 73.4-2.3 3.7-4.2 7.1-4.2 7.6 0 .4-2.7 2.4-5.9 4.4-11.5 7-20.1 19.5-20.1 29.1 0 5.7 3.7 14 8 17.9 5 4.5 10.5 6 20 5.3 4.1-.4 14.3-1.1 22.5-1.7 28.7-2 36.6-4.1 45.1-12.2 9.1-8.6 14.8-21.9 22.8-53.5 12.3-48.4 17.9-85.1 18-118.3 0-29.9-2.6-40.4-12.9-52-14.6-16.4-29.9-46.8-49.9-98.8-13.1-34.1-16.6-49-17.3-73.2-.4-14.9 0-20.8 2.2-39.5 1.9-15.2 2.9-29.1 3.2-45 .5-20.5.3-24.4-1.7-36-3.5-21.1-7.5-31.6-21-54.5-13.7-23.3-17.4-33-18.9-49.2-1-9.8-.8-11.4 1.9-25 3.7-18.2 9.8-39.3 19.3-66.8l16.2-46.5c10.9-31.5 15.5-47.9 20.5-72.5 12.7-63.4 13.2-132 1.5-204.5-7-43.2-20.4-72.4-43.9-96.1-19.5-19.5-40.5-30.5-71.6-37.2-36.1-7.9-49.8-10-55-8.3z"/></svg>