<svg xmlns="http://www.w3.org/2000/svg" viewBox="-288 327 1273 611" width="1273" height="611"><path d="M4753 12785c-178-55-319-257-354-508-28-199 54-417 180-479 70-35 167-32 245 6 79 39 172 133 218 221 139 267 121 561-43 709-72 65-150 81-246 51zm836-474c-159-51-317-195-401-366-39-79-53-143-53-240 0-82 3-97 33-157 58-119 124-154 274-145 76 4 97 10 175 47 73 35 103 58 173 129 88 88 133 159 181 286 30 79 32 206 5 285-26 74-103 152-168 168-66 17-153 14-219-7zm-1792-5c-104-37-198-166-242-331-19-72-22-230-5-300 33-134 136-277 226-311 92-35 215 4 294 93 91 103 140 243 140 398 0 265-139 466-320 464-30 0-72-6-93-13zm528-967c-138-21-303-92-468-203-184-123-354-297-382-389-43-144 14-281 144-346 68-34 150-55 296-76 150-22 229-40 304-70 122-50 179-98 327-275 63-76 132-150 153-164 118-82 269-88 350-13 99 92 143 295 121 567-23 296-58 447-142 620-62 128-142 214-255 273-125 66-311 97-448 76zm1427-43c-106-26-201-82-293-175-114-115-160-204-167-321-6-105 10-158 64-219 33-37 57-52 101-67 227-74 518 77 646 335 40 81 42 88 42 180 0 88-3 101-30 150-17 30-46 64-66 78-75 49-190 64-297 39zm-402-2800c-85-18-129-44-200-116-72-72-134-184-166-300-26-92-26-275 0-350 37-111 104-201 171-231 65-30 157-25 233 11 254 120 393 541 267 807-69 148-171 207-305 179zm860-466c-217-39-441-264-496-497-21-90-15-201 16-271 33-76 104-137 177-152 237-50 517 151 628 451 51 135 35 285-40 383-52 68-177 106-285 86zm-1820-9c-194-63-326-359-276-616 29-145 115-279 212-326 38-18 57-21 112-17 80 6 132 30 188 90 95 98 144 221 151 378 8 157-32 292-119 402-53 67-193 114-268 89zm-3080-504c-122-35-219-120-287-253-117-226-118-470-2-643 59-89 110-116 214-116 68 0 88 5 135 29 247 129 382 543 261 802-70 149-192 218-321 181zm843-471c-204-52-407-263-463-481-24-94-25-160-4-234 20-71 58-127 113-166 38-27 52-30 132-33 69-3 104 1 157 17 174 53 333 213 414 416 27 68 32 93 32 170 1 110-19 175-74 238-22 25-59 52-82 62-56 22-161 28-225 11zm-1809-9c-151-57-266-270-266-492 0-157 49-289 143-384 62-63 119-86 199-78 74 6 131 38 194 108 89 99 136 235 136 394 0 155-46 287-132 380-66 73-188 104-274 72zm4496-1c-199-42-468-204-655-393-116-117-147-170-153-261-8-117 35-204 128-260 76-45 153-67 326-92 329-46 420-96 628-344 121-144 150-170 216-200 186-84 331-4 391 216 22 82 27 247 13 413-23 272-58 418-139 584-78 160-210 271-383 323-87 26-280 33-372 14zm1465-37c-144-48-261-131-347-247-165-223-127-478 81-536 169-47 352 14 507 169 64 64 90 100 125 170 43 86 44 91 43 179-1 139-47 217-150 256-60 22-203 27-259 9zM780 6050c-98-25-311-133-430-218-115-82-275-241-314-311-72-133-28-302 99-381 60-37 147-60 335-90 336-53 410-94 614-339 159-190 224-233 354-232 208 2 304 222 272 625-45 579-204 855-543 943-115 30-276 31-387 3zm1543-21c-162-28-320-140-423-300-48-74-70-147-70-231 0-166 89-258 265-274 179-17 403 113 519 300 104 167 101 340-6 443-58 56-176 82-285 62zm-24-2998c-112-44-194-128-260-266-115-241-99-498 41-658 22-25 59-52 82-62 251-101 536 211 540 590 1 139-28 231-103 325-67 83-193 113-300 71zm-902-462c-61-14-92-35-145-95-94-105-145-244-145-399-1-152 43-278 129-374 63-70 111-93 189-93 282 2 455 459 294 776-17 34-44 78-61 98-53 67-175 108-261 87zm1744-9c-125-46-246-145-331-270-192-283-118-619 139-638 229-17 476 170 582 440 74 189 24 392-115 466-50 26-207 27-275 2zm-1263-970c-137-25-291-94-463-208-118-78-321-273-355-342-28-56-38-161-20-216 48-147 152-202 461-248 321-48 406-94 611-338 123-146 148-170 217-204 71-35 185-40 240-10 160 86 211 359 150 796-38 278-115 465-244 596-76 77-170 131-280 159-71 19-251 28-317 15zm1425-45c-146-40-289-152-382-300-92-145-83-337 20-430 103-92 317-85 487 17 120 73 241 225 276 347 48 166-16 320-153 364-64 21-175 21-248 2z" transform="matrix(.0438 .089879 .089879 -.0438 -386.817627 618.650452)"/></svg>