<?xml version="1.0" standalone="no"?>
<!DOCTYPE svg PUBLIC "-//W3C//DTD SVG 20010904//EN"
 "http://www.w3.org/TR/2001/REC-SVG-20010904/DTD/svg10.dtd">
<svg version="1.0" xmlns="http://www.w3.org/2000/svg"
 width="700.000000pt" height="700.000000pt" viewBox="0 0 700.000000 700.000000"
 preserveAspectRatio="xMidYMid meet">
<metadata>
Created by potrace 1.14, written by Peter Selinger 2001-2017
</metadata>
<g transform="translate(0.000000,700.000000) scale(0.100000,-0.100000)"
fill="#000000" stroke="none">
<path d="M6230 6318 c-57 -95 -128 -211 -156 -258 -29 -47 -75 -124 -103 -171
l-51 -86 -67 19 c-239 69 -395 89 -678 88 -182 -1 -213 -2 -320 -14 -128 -14
-150 -17 -199 -27 -81 -16 -86 -18 -178 -42 l-86 -23 -69 115 c-38 64 -125
212 -193 328 -69 117 -128 213 -131 213 -12 0 -155 -341 -208 -493 -50 -144
-114 -388 -126 -477 -3 -25 -8 -52 -10 -60 -10 -41 -19 -180 -19 -305 0 -159
5 -214 39 -375 13 -65 61 -193 103 -275 93 -181 235 -337 411 -450 129 -83
356 -179 467 -198 16 -3 63 -12 104 -21 111 -23 188 -29 360 -30 223 -1 344
12 529 55 204 47 395 128 560 236 115 76 273 234 347 348 87 134 161 319 179
450 3 17 9 59 14 95 5 36 8 133 6 215 -3 138 -7 188 -20 255 -3 14 -7 41 -10
60 -20 123 -98 388 -145 495 -5 11 -21 49 -35 85 -32 79 -155 330 -187 383
l-24 38 -104 -173z m-1655 -1229 c127 -47 239 -206 270 -379 1 -8 5 -32 9 -52
6 -34 4 -38 -25 -53 -81 -42 -225 -84 -315 -92 -221 -18 -373 104 -463 372
-36 105 -41 95 84 156 163 79 314 95 440 48z m1522 0 c67 -22 181 -75 216
-101 16 -12 16 -18 -13 -102 -121 -360 -344 -456 -714 -307 l-91 36 2 36 c8
125 84 291 170 370 104 95 265 121 430 68z"/>
<path d="M1878 4425 c-1 -1 -50 -5 -108 -9 -175 -10 -368 -50 -499 -103 -20
-8 -49 -20 -66 -26 -64 -26 -184 -92 -275 -152 -357 -237 -601 -641 -646
-1070 -12 -118 -8 -321 10 -410 2 -11 7 -40 11 -65 30 -190 124 -436 244 -643
173 -295 300 -469 469 -640 337 -342 736 -504 1257 -511 203 -3 386 11 653 49
18 3 54 7 80 10 26 3 54 8 62 10 8 2 33 6 55 9 34 5 193 27 290 41 17 2 53 7
80 10 28 3 61 8 75 10 25 5 178 20 305 31 98 8 376 8 460 0 139 -14 193 -21
250 -32 11 -2 34 -7 50 -9 61 -11 223 -59 305 -92 85 -34 284 -142 317 -172
10 -9 34 -28 53 -41 47 -33 86 -68 198 -178 112 -110 171 -144 257 -148 72 -3
126 18 171 67 42 47 53 78 50 145 -4 88 -35 144 -134 243 -340 338 -792 572
-1237 641 -38 6 -81 13 -95 15 -140 25 -579 25 -770 0 -19 -3 -55 -7 -80 -9
-67 -7 -128 -15 -310 -42 -91 -14 -183 -27 -205 -29 -22 -3 -65 -10 -95 -15
-30 -5 -73 -12 -95 -15 -21 -2 -73 -9 -115 -15 -222 -29 -304 -35 -500 -34
-229 0 -345 15 -501 65 -96 30 -275 122 -354 181 -65 49 -265 242 -265 257 0
3 1081 6 2401 6 l2401 0 9 21 c4 12 15 57 24 101 9 43 18 85 20 93 46 207 75
413 91 660 12 181 6 511 -11 612 -2 13 -11 66 -19 118 -9 52 -27 138 -41 190
-15 52 -29 106 -32 118 -7 28 -7 28 -152 -23 -147 -51 -296 -85 -483 -110
-178 -24 -489 -22 -640 5 -29 5 -66 11 -83 14 -100 17 -285 69 -365 103 -82
35 -248 119 -286 144 l-42 28 -138 -94 -137 -94 -51 41 c-299 241 -629 440
-926 558 -172 69 -375 128 -517 150 -38 6 -79 13 -93 15 -14 3 -77 8 -140 11
-63 3 -120 7 -127 9 -6 2 -13 2 -15 0z"/>
</g>
</svg>
