<?xml version="1.0" standalone="no"?>
<!DOCTYPE svg PUBLIC "-//W3C//DTD SVG 20010904//EN"
 "http://www.w3.org/TR/2001/REC-SVG-20010904/DTD/svg10.dtd">
<svg version="1.0" xmlns="http://www.w3.org/2000/svg"
 width="950.000000pt" height="950.000000pt" viewBox="0 0 950.000000 950.000000"
 preserveAspectRatio="xMidYMid meet">
<metadata>
Created by potrace 1.14, written by Peter Selinger 2001-2017
</metadata>
<g transform="translate(0.000000,950.000000) scale(0.100000,-0.100000)"
fill="#000000" stroke="none">
<path d="M8835 9237 c-17 -28 -39 -65 -50 -83 -11 -17 -35 -58 -54 -90 -19
-33 -37 -61 -40 -64 -3 -3 -17 -25 -30 -50 -14 -25 -27 -47 -30 -50 -3 -3 -13
-17 -21 -32 -8 -15 -52 -89 -98 -165 -46 -76 -108 -178 -138 -228 -29 -49 -58
-97 -64 -105 -5 -8 -19 -32 -30 -52 -11 -21 -24 -38 -29 -38 -4 0 -44 11 -87
25 -79 26 -207 60 -254 68 -14 3 -36 8 -50 11 -31 7 -90 15 -150 22 -25 2 -56
7 -70 9 -141 26 -797 27 -935 1 -21 -4 -118 -16 -170 -22 -16 -1 -43 -5 -60
-8 -16 -3 -46 -8 -65 -11 -19 -3 -73 -15 -120 -26 -47 -12 -94 -22 -105 -24
-11 -1 -27 -5 -35 -8 -8 -3 -40 -13 -70 -21 -54 -15 -55 -15 -72 7 -10 12 -18
26 -18 31 0 5 -6 17 -14 25 -7 9 -31 48 -51 86 -21 39 -41 72 -45 75 -4 3 -13
20 -21 38 -8 17 -17 32 -21 32 -5 0 -8 7 -8 15 0 8 -4 15 -10 15 -5 0 -10 5
-10 10 0 10 -35 71 -133 233 -20 34 -40 69 -44 77 -4 8 -9 17 -12 20 -6 5 -16
22 -58 99 -14 25 -31 53 -37 61 -13 18 -34 54 -54 93 -13 25 -36 35 -32 13 1
-5 -2 -12 -7 -15 -8 -6 -32 -56 -98 -206 -48 -108 -52 -119 -100 -240 -25 -66
-53 -136 -61 -155 -8 -20 -16 -42 -17 -50 -2 -8 -5 -19 -8 -25 -8 -13 -86
-260 -95 -300 -4 -16 -9 -34 -12 -40 -4 -5 -7 -16 -8 -25 -1 -8 -14 -64 -28
-125 -15 -60 -29 -126 -32 -145 -2 -19 -7 -43 -10 -53 -3 -10 -7 -32 -10 -50
-2 -18 -8 -63 -14 -102 -19 -128 -24 -208 -24 -410 0 -249 9 -338 54 -530 6
-27 13 -58 15 -69 3 -10 10 -25 17 -34 8 -9 8 -13 2 -9 -7 4 1 -28 18 -71 16
-42 34 -90 40 -106 11 -30 88 -183 111 -221 34 -57 109 -164 131 -188 14 -16
26 -31 26 -34 0 -8 159 -166 206 -205 22 -18 56 -44 74 -58 18 -14 39 -31 46
-37 7 -7 17 -13 22 -13 5 0 17 -9 27 -20 10 -11 22 -20 26 -20 5 0 32 -15 61
-33 80 -51 251 -132 353 -167 33 -12 69 -25 80 -30 11 -5 34 -12 50 -16 17 -4
35 -8 40 -10 72 -20 211 -53 248 -58 23 -3 53 -8 67 -11 14 -4 41 -8 60 -10
19 -2 64 -7 100 -12 105 -13 705 -7 705 7 0 3 48 9 100 14 53 5 233 40 300 58
22 6 48 12 57 13 17 2 176 51 213 66 11 4 52 20 90 34 82 32 303 141 326 161
8 8 18 14 22 14 6 0 117 72 146 95 155 123 305 271 372 366 13 19 26 36 29 39
18 16 96 148 136 229 26 53 53 108 60 122 7 14 15 36 18 50 2 13 12 42 21 63
9 22 18 47 20 55 2 9 11 45 20 81 19 72 23 91 29 141 3 19 5 34 6 34 3 0 8 49
16 135 12 147 7 391 -10 525 -3 17 -7 53 -11 80 -3 28 -8 61 -11 75 -3 14 -7
36 -10 50 -4 21 -14 64 -59 255 -9 39 -49 172 -58 195 -3 8 -16 44 -27 80 -11
36 -24 72 -27 80 -3 8 -7 18 -8 23 -2 4 -4 9 -5 12 -1 3 -3 8 -5 13 -1 4 -7
21 -14 37 -7 17 -19 46 -26 65 -38 106 -191 430 -283 600 -58 108 -54 105 -87
47z m-2645 -1970 c100 -16 222 -85 298 -167 75 -81 153 -235 187 -370 2 -10
26 -146 29 -167 2 -18 -4 -25 -33 -34 -20 -6 -40 -15 -46 -19 -13 -9 -122 -52
-132 -52 -4 0 -16 -4 -26 -10 -10 -5 -31 -12 -45 -14 -15 -3 -34 -8 -42 -11
-8 -4 -22 -8 -30 -9 -8 -1 -28 -5 -45 -9 -42 -10 -289 -14 -295 -5 -3 5 -20
10 -38 13 -41 7 -163 67 -169 84 -3 7 -10 13 -15 13 -16 0 -94 86 -136 149
-51 76 -96 173 -131 284 -42 134 -42 132 -12 149 94 54 181 98 181 91 0 -4 4
-3 8 3 8 13 194 76 214 73 7 -1 20 1 28 4 33 13 181 16 250 4z m2270 -15 c104
-28 143 -43 248 -95 128 -63 155 -83 142 -108 -6 -10 -8 -19 -4 -19 3 0 1 -7
-6 -15 -6 -8 -9 -19 -5 -25 3 -5 1 -10 -6 -10 -7 0 -10 -3 -6 -6 7 -7 -21 -89
-58 -169 -16 -33 -29 -62 -30 -65 -7 -23 -30 -60 -37 -60 -4 0 -8 -5 -8 -11 0
-14 -61 -91 -105 -133 -57 -54 -163 -114 -220 -123 -16 -3 -37 -9 -46 -13 -17
-10 -239 -6 -279 4 -14 3 -38 9 -53 11 -16 3 -72 20 -125 37 -53 18 -100 31
-104 30 -5 -1 -8 2 -8 7 0 4 -21 16 -47 26 -77 29 -75 23 -57 125 16 90 37
175 53 209 52 110 85 171 101 189 11 12 20 24 20 28 0 3 26 31 57 61 61 57
166 115 248 136 74 19 245 13 335 -11z"/>
<path d="M2178 6255 c-2 -1 -34 -6 -73 -9 -81 -8 -102 -10 -170 -21 -27 -5
-59 -9 -70 -11 -11 -1 -20 -3 -20 -4 0 -1 -13 -4 -30 -6 -16 -3 -37 -7 -45
-11 -8 -3 -28 -7 -43 -9 -43 -6 -314 -98 -393 -134 -102 -47 -225 -110 -256
-131 -14 -11 -29 -19 -32 -19 -15 0 -218 -149 -300 -220 -41 -35 -173 -169
-220 -221 -54 -62 -166 -212 -165 -223 0 -5 -3 -12 -8 -15 -19 -13 -175 -297
-177 -321 0 -3 -15 -41 -33 -85 -18 -43 -33 -86 -33 -95 0 -9 -5 -21 -12 -28
-7 -7 -9 -12 -5 -12 3 0 -1 -19 -9 -42 -8 -23 -17 -55 -20 -72 -2 -17 -8 -40
-11 -51 -4 -11 -7 -24 -8 -30 -1 -15 -17 -107 -22 -130 -25 -119 -23 -594 2
-667 2 -7 7 -31 9 -53 9 -66 16 -106 38 -190 11 -44 22 -90 24 -102 2 -12 9
-35 15 -50 6 -16 11 -30 11 -33 0 -3 14 -41 30 -85 16 -44 30 -86 31 -92 0 -7
3 -13 7 -13 4 0 7 -6 7 -12 0 -22 123 -281 180 -380 19 -35 44 -78 55 -97 10
-18 41 -66 68 -107 28 -40 50 -75 50 -78 0 -5 86 -138 152 -234 42 -62 184
-247 219 -287 10 -11 32 -36 50 -55 64 -72 148 -157 215 -217 95 -86 113 -101
162 -136 23 -17 42 -35 42 -40 0 -6 3 -7 6 -4 4 4 20 -4 36 -18 46 -39 204
-134 317 -190 115 -57 192 -89 316 -131 101 -33 164 -50 263 -69 15 -3 34 -8
42 -10 8 -3 33 -7 55 -10 46 -7 66 -10 115 -19 91 -16 690 -32 714 -18 5 3 34
6 65 7 53 3 151 11 231 20 19 2 60 7 90 10 30 3 66 8 80 10 14 2 48 7 75 10
28 2 59 6 70 9 11 2 43 7 70 10 28 4 64 9 80 11 17 3 50 7 75 10 25 3 52 7 60
9 8 3 36 7 62 11 26 3 67 9 91 14 24 4 55 7 70 7 15 -1 27 1 27 4 0 3 10 6 23
6 12 1 38 4 57 7 19 3 62 9 95 13 33 3 69 8 80 10 11 3 38 6 60 9 22 3 56 7
75 10 57 8 124 16 171 20 24 3 69 7 99 10 328 33 732 37 970 10 197 -22 338
-46 455 -77 22 -6 45 -11 50 -12 25 -5 136 -40 195 -61 216 -77 511 -238 621
-338 9 -8 21 -16 26 -18 21 -8 124 -101 255 -229 143 -141 174 -170 184 -170
3 0 19 -9 35 -21 16 -11 29 -17 29 -13 0 3 7 0 16 -7 9 -7 21 -14 28 -15 112
-21 130 -22 186 -12 95 17 180 81 222 167 19 37 23 63 23 131 0 75 -4 93 -33
154 -47 99 -128 192 -295 338 -23 20 -52 46 -64 57 -12 12 -25 21 -28 21 -4 0
-42 31 -79 65 -6 6 -27 22 -46 35 -19 13 -37 27 -40 30 -14 17 -260 174 -360
231 -124 69 -284 146 -395 189 -11 4 -33 13 -49 19 -52 21 -262 89 -292 95
-16 3 -54 12 -84 20 -30 8 -56 13 -59 11 -2 -3 -9 -1 -15 4 -6 5 -29 12 -51
15 -43 7 -68 12 -102 20 -12 2 -48 7 -80 11 -32 3 -67 8 -78 10 -179 38 -798
38 -1120 1 -22 -3 -67 -8 -100 -11 -33 -4 -71 -8 -85 -11 -14 -2 -50 -7 -80
-10 -30 -3 -68 -7 -85 -9 -16 -1 -30 -4 -30 -5 0 -1 -11 -3 -25 -5 -62 -6
-127 -15 -148 -19 -13 -3 -56 -10 -95 -15 -40 -6 -97 -15 -127 -20 -30 -5 -58
-7 -62 -4 -5 2 -8 1 -8 -4 0 -4 -10 -8 -22 -9 -24 -1 -115 -13 -152 -20 -12
-2 -41 -7 -66 -10 -25 -3 -56 -7 -70 -9 -14 -2 -44 -7 -67 -10 -23 -3 -57 -8
-75 -11 -18 -3 -55 -7 -83 -9 -27 -2 -59 -6 -71 -9 -12 -2 -57 -7 -100 -11
-43 -4 -90 -9 -104 -11 -129 -16 -535 -22 -652 -10 -92 10 -141 16 -164 21
-12 3 -39 7 -60 10 -68 11 -78 13 -124 24 -114 30 -292 94 -314 113 -6 4 -16
8 -23 8 -7 0 -31 11 -52 24 -21 14 -42 22 -45 19 -3 -4 -6 -1 -6 5 0 7 -5 12
-11 12 -16 0 -167 101 -252 169 -110 89 -327 308 -327 331 0 3 1581 6 3513 6
l3512 0 37 150 c21 82 40 163 42 179 3 17 10 53 16 80 5 28 12 64 14 80 3 17
7 41 10 55 9 36 28 152 32 193 1 9 3 18 4 20 1 1 3 13 5 27 1 14 5 48 9 75 4
28 9 70 11 95 2 25 7 65 10 90 25 217 37 547 21 569 -8 11 -8 13 1 8 13 -8 13
59 0 81 -5 6 -4 12 1 12 9 0 9 41 -2 210 -7 122 -16 210 -25 270 -4 26 -7 59
-6 74 0 14 -2 26 -6 26 -3 0 -5 10 -5 23 1 12 0 27 -3 32 -3 6 -6 19 -7 30 0
11 -4 34 -8 50 -3 17 -8 39 -10 50 -2 11 -9 39 -15 63 -7 23 -9 48 -5 54 5 7
3 8 -6 3 -10 -6 -12 -4 -7 7 3 9 3 19 -1 22 -3 4 -7 13 -8 21 -2 16 -37 125
-53 168 -9 22 -14 26 -28 18 -36 -20 -272 -105 -323 -116 -8 -1 -41 -10 -72
-20 -31 -9 -67 -18 -80 -21 -13 -2 -34 -6 -48 -10 -14 -3 -34 -7 -45 -9 -24
-4 -120 -23 -155 -30 -14 -3 -45 -8 -70 -11 -25 -3 -58 -7 -75 -10 -28 -5 -84
-10 -210 -19 -27 -2 -50 -4 -50 -5 0 -7 -364 -5 -377 2 -12 6 -18 5 -18 -2 0
-6 -4 -9 -8 -6 -5 3 -40 8 -78 11 -89 7 -151 14 -189 20 -16 2 -46 7 -65 10
-49 7 -91 14 -120 21 -14 3 -36 8 -50 10 -14 3 -41 9 -60 14 -19 5 -46 11 -60
14 -23 4 -142 40 -220 66 -113 38 -363 152 -445 202 -11 7 -48 30 -83 51 l-62
38 -138 -92 c-75 -51 -142 -98 -148 -106 -6 -7 -14 -13 -18 -13 -3 0 -25 -13
-48 -30 -48 -35 -49 -35 -76 -12 -33 28 -55 45 -102 82 -25 19 -47 37 -50 40
-3 3 -21 17 -40 30 -19 13 -41 30 -47 36 -7 7 -28 22 -48 34 -19 12 -35 25
-35 30 0 5 -10 12 -22 16 -13 4 -25 10 -28 14 -4 6 -223 154 -276 187 -88 54
-303 177 -364 208 -41 21 -82 42 -90 46 -20 11 -165 78 -199 91 -14 6 -29 11
-33 10 -5 -1 -8 3 -8 8 0 5 -3 9 -7 8 -10 -2 -41 10 -73 27 -14 7 -27 13 -30
12 -7 -1 -101 33 -122 44 -10 5 -26 9 -36 9 -10 0 -22 4 -27 8 -9 8 -77 30
-97 32 -4 0 -26 7 -48 15 -22 8 -40 12 -40 10 0 -2 -16 3 -35 11 -19 8 -35 12
-35 9 0 -3 -9 -1 -20 5 -10 6 -34 13 -52 15 -37 6 -53 9 -123 24 -59 13 -90
18 -225 36 -30 4 -66 9 -80 11 -28 5 -477 13 -482 9z"/>
</g>
</svg>
